<svg width="32" height="32" viewBox="0 0 32 32" fill="none" xmlns="http://www.w3.org/2000/svg">
<path d="M21.3334 8H8.00004L1.33337 16V20H4.00004C4.00004 21.0609 4.42147 22.0783 5.17161 22.8284C5.92176 23.5786 6.93917 24 8.00004 24C9.06091 24 10.0783 23.5786 10.8285 22.8284C11.5786 22.0783 12 21.0609 12 20H20C20 21.0609 20.4215 22.0783 21.1716 22.8284C21.9218 23.5786 22.9392 24 24 24C25.0609 24 26.0783 23.5786 26.8285 22.8284C27.5786 22.0783 28 21.0609 28 20H30.6667V16C30.6667 14.52 29.48 13.3333 28 13.3333H25.3334L21.3334 8ZM8.66671 10H14V13.3333H6.00004L8.66671 10ZM16 10H20.6667L23.28 13.3333H16V10ZM8.00004 18C8.53047 18 9.03918 18.2107 9.41425 18.5858C9.78933 18.9609 10 19.4696 10 20C10 20.5304 9.78933 21.0391 9.41425 21.4142C9.03918 21.7893 8.53047 22 8.00004 22C7.46961 22 6.9609 21.7893 6.58583 21.4142C6.21075 21.0391 6.00004 20.5304 6.00004 20C6.00004 19.4696 6.21075 18.9609 6.58583 18.5858C6.9609 18.2107 7.46961 18 8.00004 18ZM24 18C24.5305 18 25.0392 18.2107 25.4143 18.5858C25.7893 18.9609 26 19.4696 26 20C26 20.5304 25.7893 21.0391 25.4143 21.4142C25.0392 21.7893 24.5305 22 24 22C23.4696 22 22.9609 21.7893 22.5858 21.4142C22.2108 21.0391 22 20.5304 22 20C22 19.4696 22.2108 18.9609 22.5858 18.5858C22.9609 18.2107 23.4696 18 24 18Z" fill="#33A852"/>
</svg>
