<svg width="64" height="64" viewBox="0 0 64 64" fill="none" xmlns="http://www.w3.org/2000/svg">
<path fill-rule="evenodd" clip-rule="evenodd" d="M6.58394 26.5839C6.76973 26.3977 6.99043 26.2499 7.23341 26.1491C7.47639 26.0482 7.73687 25.9963 7.99994 25.9963C8.26301 25.9963 8.5235 26.0482 8.76648 26.1491C9.00946 26.2499 9.23016 26.3977 9.41594 26.5839L31.9999 49.1719L54.5839 26.5839C54.9595 26.2084 55.4688 25.9974 55.9999 25.9974C56.531 25.9974 57.0404 26.2084 57.4159 26.5839C57.7915 26.9595 58.0025 27.4688 58.0025 27.9999C58.0025 28.531 57.7915 29.0404 57.4159 29.4159L33.4159 53.4159C33.2302 53.6022 33.0095 53.7499 32.7665 53.8508C32.5235 53.9516 32.263 54.0035 31.9999 54.0035C31.7369 54.0035 31.4764 53.9516 31.2334 53.8508C30.9904 53.7499 30.7697 53.6022 30.5839 53.4159L6.58394 29.4159C6.39769 29.2301 6.24992 29.0094 6.14909 28.7664C6.04827 28.5235 5.99637 28.263 5.99637 27.9999C5.99637 27.7368 6.04827 27.4764 6.14909 27.2334C6.24992 26.9904 6.39769 26.7697 6.58394 26.5839V26.5839Z" fill="white"/>
<path fill-rule="evenodd" clip-rule="evenodd" d="M6.58394 10.5839C6.76973 10.3977 6.99043 10.2499 7.23341 10.1491C7.47639 10.0482 7.73687 9.99634 7.99994 9.99634C8.26301 9.99634 8.5235 10.0482 8.76648 10.1491C9.00946 10.2499 9.23016 10.3977 9.41594 10.5839L31.9999 33.1719L54.5839 10.5839C54.7699 10.398 54.9907 10.2505 55.2336 10.1498C55.4766 10.0492 55.737 9.99739 55.9999 9.99739C56.2629 9.99739 56.5233 10.0492 56.7663 10.1498C57.0092 10.2505 57.23 10.398 57.4159 10.5839C57.6019 10.7699 57.7494 10.9906 57.85 11.2336C57.9507 11.4765 58.0025 11.7369 58.0025 11.9999C58.0025 12.2629 57.9507 12.5233 57.85 12.7662C57.7494 13.0092 57.6019 13.23 57.4159 13.4159L33.4159 37.4159C33.2302 37.6022 33.0095 37.7499 32.7665 37.8508C32.5235 37.9516 32.263 38.0035 31.9999 38.0035C31.7369 38.0035 31.4764 37.9516 31.2334 37.8508C30.9904 37.7499 30.7697 37.6022 30.5839 37.4159L6.58394 13.4159C6.39769 13.2301 6.24992 13.0094 6.14909 12.7664C6.04827 12.5235 5.99637 12.263 5.99637 11.9999C5.99637 11.7368 6.04827 11.4764 6.14909 11.2334C6.24992 10.9904 6.39769 10.7697 6.58394 10.5839V10.5839Z" fill="white"/>
</svg>
