<svg width="789" height="273" viewBox="0 0 789 273" fill="none" xmlns="http://www.w3.org/2000/svg">
<g clip-path="url(#clip0)">
<path fill-rule="evenodd" clip-rule="evenodd" d="M492.355 -209.385C507.285 -181.865 527.836 -155.226 524.958 -123.586C521.97 -90.7331 514.953 -48.6407 475.811 -27.496C430.483 -3.00932 368.501 -35.3594 321.127 -13.4749C277.862 6.51111 283.913 60.3961 241.056 80.9494C201.968 99.695 156.285 83.2914 112.941 86.3667C56.5642 90.3666 -12.1524 123.419 -54.6634 101.931C-96.3635 80.8521 -71.2163 26.1602 -81.4485 -11.8923C-89.8836 -43.2617 -112.659 -70.7034 -110.037 -103.999C-107.437 -137.022 -81.1061 -168.634 -66.5185 -201.504C-50.2334 -238.199 -59.2377 -283.554 -18.4311 -310.414C23.3124 -337.891 83.4029 -329.252 135.151 -334.249C175.898 -338.184 219.051 -346.303 254.875 -336.808C289.105 -327.736 296.546 -293.299 329.657 -282.695C362.725 -272.106 411.376 -290.651 441.749 -276.965C471.831 -263.411 479.098 -233.821 492.355 -209.385Z" fill="#219653"/>
<path fill-rule="evenodd" clip-rule="evenodd" d="M131.496 267.167C98.6414 260.403 119.132 212.037 85.3882 207.668C40.4431 201.849 -22.4943 273.843 -36.2142 245.454C-53.7652 209.138 60.0882 190.097 58.6005 152.24C57.7305 130.099 -12.7404 149.632 -40.5002 136.385C-64.8693 124.756 -88.2784 103.893 -82.5371 84.8873C-77.0917 66.8611 -36.0023 64.8161 -15.1646 52.5159C2.59866 42.0305 10.1724 24.5811 31.6206 17.5017C53.0913 10.4149 84.5022 3.29105 103.432 13.371C132.915 29.0713 130.971 58.8406 149.668 80.3628C154.36 85.7636 166.25 86.9437 171.754 92.0186C176.904 96.7664 171.314 107.186 180.037 108.364C212.202 112.706 245.847 99.9676 277.286 106.264C318.945 114.607 418.728 130.361 388.409 150.095C345.112 178.275 234.706 119.109 204.358 153.73C175.168 187.029 305.761 213.588 299.19 251.874C295.014 276.205 228.753 226.073 191.356 229.483C163.385 232.034 158.633 272.753 131.496 267.167Z" fill="#27AE60"/>
<path fill-rule="evenodd" clip-rule="evenodd" d="M180.268 -242.043C214.038 -271.203 271.182 -256.355 305.568 -284.786C336.386 -310.267 321.521 -378.425 359.679 -390.383C398.757 -402.629 427.272 -336.005 468.224 -335.758C513.435 -335.486 547.202 -398.664 591.365 -388.986C630.55 -380.398 644.095 -329.105 662.117 -293.266C678.405 -260.874 685.248 -225.491 691.535 -189.782C697.541 -155.67 709.211 -120.138 698.39 -87.234C687.67 -54.6365 657.113 -33.4867 632.329 -9.75291C610.848 10.8181 584.848 24.5088 561.921 43.4544C535.779 65.0569 516.778 94.5144 486.849 110.463C451.898 129.088 413.598 146.276 374.088 143.546C333.328 140.73 299.165 114.009 263.001 94.9953C220.298 72.543 168.005 60.4746 140.587 20.7767C113.192 -18.889 107.397 -72.2152 114.594 -119.882C121.572 -166.101 144.889 -211.494 180.268 -242.043Z" fill="#26773B"/>
</g>
<defs>
<clipPath id="clip0">
<rect width="789" height="273" fill="white"/>
</clipPath>
</defs>
</svg>
