<svg width="48" height="48" viewBox="0 0 48 48" fill="none" xmlns="http://www.w3.org/2000/svg">
<path d="M24 0C10.7458 0 0 10.7458 0 24C0 37.2542 10.7458 48 24 48C37.2542 48 48 37.2542 48 24C48 10.7458 37.2542 0 24 0ZM28.0742 33.7719C28.2529 33.9417 28.3957 34.1454 28.4944 34.3712C28.593 34.597 28.6455 34.8403 28.6487 35.0867C28.6518 35.3331 28.6056 35.5776 28.5128 35.8059C28.4199 36.0342 28.2823 36.2415 28.1081 36.4158C27.9338 36.59 27.7265 36.7276 27.4982 36.8205C27.27 36.9133 27.0254 36.9595 26.779 36.9563C26.5326 36.9532 26.2893 36.9007 26.0635 36.8021C25.8377 36.7034 25.634 36.5606 25.4642 36.3819L14.3873 25.305C14.0413 24.9588 13.847 24.4894 13.847 24C13.847 23.5106 14.0413 23.0412 14.3873 22.695L25.4642 11.6181C25.8133 11.2865 26.278 11.1043 26.7594 11.1105C27.2409 11.1167 27.7008 11.3106 28.0412 11.6511C28.3817 11.9915 28.5756 12.4515 28.5818 12.9329C28.588 13.4143 28.4058 13.879 28.0742 14.2281L18.3035 24L28.0742 33.7719Z" fill="#33A852"/>
</svg>
