<svg width="72" height="72" viewBox="0 0 72 72" fill="none" xmlns="http://www.w3.org/2000/svg">
<path d="M9 18H63V54H9V18ZM36 27C38.3869 27 40.6761 27.9482 42.364 29.636C44.0518 31.3239 45 33.6131 45 36C45 38.3869 44.0518 40.6761 42.364 42.364C40.6761 44.0518 38.3869 45 36 45C33.6131 45 31.3239 44.0518 29.636 42.364C27.9482 40.6761 27 38.3869 27 36C27 33.6131 27.9482 31.3239 29.636 29.636C31.3239 27.9482 33.6131 27 36 27ZM21 24C21 25.5913 20.3679 27.1174 19.2426 28.2426C18.1174 29.3679 16.5913 30 15 30V42C16.5913 42 18.1174 42.6321 19.2426 43.7574C20.3679 44.8826 21 46.4087 21 48H51C51 46.4087 51.6321 44.8826 52.7574 43.7574C53.8826 42.6321 55.4087 42 57 42V30C55.4087 30 53.8826 29.3679 52.7574 28.2426C51.6321 27.1174 51 25.5913 51 24H21Z" fill="#33A852"/>
</svg>
