<svg width="24" height="24" viewBox="0 0 24 24" fill="none" xmlns="http://www.w3.org/2000/svg">
<path d="M22.0289 1.97101C21.2749 1.21701 20.2339 0.751007 19.0849 0.751007C17.9359 0.751007 16.8939 1.21701 16.1409 1.97101L3.36792 14.744L1.10992 21.401C1.03874 21.608 1.02734 21.8308 1.07705 22.0439C1.12675 22.2571 1.23553 22.4519 1.39092 22.606L1.39492 22.61C1.55003 22.7668 1.74656 22.8762 1.96153 22.9254C2.1765 22.9746 2.40104 22.9616 2.60892 22.888L2.60092 22.891L9.25792 20.633L22.0309 7.86001C22.7849 7.10601 23.2509 6.06501 23.2509 4.91601C23.2509 3.76701 22.7849 2.72501 22.0309 1.97201L22.0289 1.97101ZM8.44292 19.325L2.74092 21.259L4.67492 15.557L14.4599 5.77201L18.2269 9.53901L8.44292 19.325ZM20.9689 6.79901L19.2889 8.47901L15.5219 4.71201L17.2019 3.03201C17.4478 2.77825 17.7418 2.57595 18.0666 2.43688C18.3915 2.29782 18.7407 2.22477 19.0941 2.222C19.4474 2.21922 19.7978 2.28677 20.1248 2.42071C20.4518 2.55466 20.7489 2.75232 20.9987 3.00218C21.2486 3.25205 21.4463 3.54913 21.5802 3.87612C21.7142 4.20311 21.7817 4.55349 21.7789 4.90684C21.7762 5.26019 21.7031 5.60946 21.564 5.93431C21.425 6.25916 21.2227 6.5531 20.9689 6.79901Z" fill="#989898"/>
</svg>
