<svg width="24" height="24" viewBox="0 0 24 24" fill="none" xmlns="http://www.w3.org/2000/svg">
<path d="M16 6H5.99998L0.999985 12V15H2.99998C2.99998 15.7956 3.31606 16.5587 3.87866 17.1213C4.44127 17.6839 5.20434 18 5.99998 18C6.79563 18 7.5587 17.6839 8.12131 17.1213C8.68391 16.5587 8.99998 15.7956 8.99998 15H15C15 15.7956 15.3161 16.5587 15.8787 17.1213C16.4413 17.6839 17.2043 18 18 18C18.7956 18 19.5587 17.6839 20.1213 17.1213C20.6839 16.5587 21 15.7956 21 15H23V12C23 10.89 22.11 10 21 10H19L16 6ZM6.49998 7.5H10.5V10H4.49998L6.49998 7.5ZM12 7.5H15.5L17.46 10H12V7.5ZM5.99998 13.5C6.39781 13.5 6.77934 13.658 7.06065 13.9393C7.34195 14.2206 7.49998 14.6022 7.49998 15C7.49998 15.3978 7.34195 15.7794 7.06065 16.0607C6.77934 16.342 6.39781 16.5 5.99998 16.5C5.60216 16.5 5.22063 16.342 4.93932 16.0607C4.65802 15.7794 4.49998 15.3978 4.49998 15C4.49998 14.6022 4.65802 14.2206 4.93932 13.9393C5.22063 13.658 5.60216 13.5 5.99998 13.5ZM18 13.5C18.3978 13.5 18.7793 13.658 19.0606 13.9393C19.3419 14.2206 19.5 14.6022 19.5 15C19.5 15.3978 19.3419 15.7794 19.0606 16.0607C18.7793 16.342 18.3978 16.5 18 16.5C17.6022 16.5 17.2206 16.342 16.9393 16.0607C16.658 15.7794 16.5 15.3978 16.5 15C16.5 14.6022 16.658 14.2206 16.9393 13.9393C17.2206 13.658 17.6022 13.5 18 13.5Z" fill="#26773B"/>
</svg>
